<?xml version="1.0" encoding="UTF-8"?>
<svg width="100" height="100" viewBox="0 0 430 800" xmlns="http://www.w3.org/2000/svg">

  <!-- Logo container with pulse effect -->
  <circle cx="215" cy="350" r="60" fill="rgba(255, 255, 255, 0.15)">
    <animate
      attributeName="r"
      values="58;60;58"
      dur="2s"
      repeatCount="indefinite" />
  </circle>

  <!-- Family icon -->
  <g transform="translate(185, 320)">
    <path
      d="M17 20h5v-2a3 3 0 00-5.356-1.857M17 20H7m10 0v-2c0-.656-.126-1.283-.356-1.857M7 20H2v-2a3 3 0 015.356-1.857M7 20v-2c0-.656.126-1.283.356-1.857m0 0a5.002 5.002 0 019.288 0M15 7a3 3 0 11-6 0 3 3 0 016 0zm6 3a2 2 0 11-4 0 2 2 0 014 0zM7 10a2 2 0 11-4 0 2 2 0 014 0z"
      stroke="white"
      stroke-width="2"
      stroke-linecap="round"
      stroke-linejoin="round"
      fill="none"
      transform="scale(2.5)" />
  </g>

  <!-- App tagline -->
  <text x="215" y="480" font-family="Outfit, sans-serif" font-size="16" font-weight="400"
        text-anchor="middle" fill="rgba(255, 255, 255, 0.8)" opacity="0">
    Connect with your loved ones
    <animate 
        attributeName="opacity" 
        values="0;1" 
        dur="1s" 
        begin="0.8s"
        fill="freeze" />
  </text>

</svg>
